<?xml version="1.0" standalone="no"?>
<!DOCTYPE svg PUBLIC "-//W3C//DTD SVG 20010904//EN"
 "http://www.w3.org/TR/2001/REC-SVG-20010904/DTD/svg10.dtd">
<svg version="1.0" xmlns="http://www.w3.org/2000/svg"
 width="32.000000pt" height="32.000000pt" viewBox="0 0 32.000000 32.000000"
 preserveAspectRatio="xMidYMid meet">

<g transform="translate(0.000000,32.000000) scale(0.100000,-0.100000)"
fill="#000000" stroke="none">
<path d="M0 160 l0 -160 160 0 160 0 0 160 0 160 -160 0 -160 0 0 -160z m279
124 c18 -23 21 -41 21 -126 0 -92 -2 -101 -25 -123 -22 -23 -32 -25 -120 -25
-131 0 -135 4 -135 150 0 147 3 150 139 150 96 0 100 -1 120 -26z"/>
<path d="M52 268 c-16 -16 -16 -200 0 -216 8 -8 47 -12 110 -12 97 0 99 1 108
26 13 33 13 155 0 188 -9 25 -11 26 -108 26 -63 0 -102 -4 -110 -12z m198 -18
c0 -5 -4 -10 -10 -10 -5 0 -10 5 -10 10 0 6 5 10 10 10 6 0 10 -4 10 -10z
m-120 -50 c8 -14 8 -26 0 -40 -8 -14 -8 -26 0 -40 8 -16 8 -20 -4 -20 -8 0
-18 9 -21 20 -8 26 -25 26 -25 0 0 -11 -4 -20 -10 -20 -6 0 -10 27 -10 60 0
60 0 60 30 60 19 0 33 -7 40 -20z m61 -12 l15 -31 14 32 c19 46 35 33 38 -32
2 -46 0 -57 -13 -57 -10 0 -15 10 -16 28 0 27 0 27 -11 4 l-12 -23 -12 23 -13
23 -1 -27 c0 -18 -5 -28 -15 -28 -11 0 -15 13 -15 53 0 75 16 89 41 35z m59
-118 c0 -5 -4 -10 -10 -10 -5 0 -10 5 -10 10 0 6 5 10 10 10 6 0 10 -4 10 -10z"/>
<path d="M80 180 c0 -5 7 -10 15 -10 8 0 15 5 15 10 0 6 -7 10 -15 10 -8 0
-15 -4 -15 -10z"/>
</g>
</svg>
